<svg fill="none" height="24" viewBox="0 0 24 24" width="24" xmlns="http://www.w3.org/2000/svg"><g fill="#c0c0c0"><path d="m14.064 6.33406c.1833-.50328.7442-.76842 1.2174-.51734 1.1548.61287 2.1212 1.54047 2.7812 2.68397.8225 1.42501 1.1167 3.09421.8311 4.71451-.2856 1.6204-1.1329 3.0884-2.3931 4.1462-1.2602 1.0579-2.8528 1.638-4.4981 1.6386s-3.23832-.5784-4.49926-1.6354c-1.26095-1.0569-2.10928-2.5243-2.39608-4.1444-.28679-1.6202.00628-3.2896.82777-4.71519.65921-1.14397 1.62488-2.07226 2.77932-2.68595.47295-.25142 1.03405.01333 1.21774.51647.18371.50314-.08217 1.05245-.54111 1.32863-.73121.44002-1.34402 1.0608-1.77534 1.8093-.59386 1.03054-.80573 2.23734-.5984 3.40864.20732 1.1712.82059 2.2319 1.73213 2.996.91155.7641 2.06313 1.1827 3.25253 1.1822 1.1894-.0004 2.3407-.4198 3.2517-1.1845s1.5235-1.8259 1.73-2.9973-.0062-2.378-.6008-3.40816c-.4319-.7482-1.0451-1.36854-1.7767-1.80804-.4591-.27585-.7254-.82497-.542-1.32824z"/><path d="m12 5c-.5523 0-1 .44772-1 1v6c0 .5523.4477 1 1 1s1-.4477 1-1v-6c0-.55228-.4477-1-1-1z"/><path clip-rule="evenodd" d="m23 12c0 6.0751-4.9249 11-11 11-6.07513 0-11-4.9249-11-11 0-6.07513 4.92487-11 11-11 6.0751 0 11 4.92487 11 11zm-19.99317 0c0 4.9668 4.02638 8.9932 8.99317 8.9932 4.9668 0 8.9932-4.0264 8.9932-8.9932 0-4.96679-4.0264-8.99317-8.9932-8.99317-4.96679 0-8.99317 4.02638-8.99317 8.99317z" fill-rule="evenodd"/></g></svg>